<svg version="1.1" id="LOGO_FLJ_WHITE_RGB" xmlns="http://www.w3.org/2000/svg" xmlns:xlink="http://www.w3.org/1999/xlink" width="300" height="62" x="0px" y="0px" viewBox="0 0 75 15.5" xml:space="preserve" alt="Halfords | Bikes | Sat Navs | DAB Radios | Car Seats | Car Maintenance" title="Halfords | Bikes | Sat Navs | DAB Radios | Car Seats | Car Maintenance">
    <g>
        <g>
            <path class="st0" d="M0,0.1h3.4v5.6h0C4,4.6,5.4,3.9,6.6,3.9c3.5,0,3.8,2.7,3.8,4.2v7H7V9.9c0-1.5,0.2-3-1.7-3 C4,
                6.9,3.4,8,3.4,9.2v6H0V0.1z" fill="#ff9718"></path>
            <path class="st0" d="M12.2,7.6c0.1-1.4,0.7-2.4,1.6-2.9c0.9-0.5,2.1-0.8,3.3-0.8c2.5,0,4.9,0.6,4.9,3.7v4.8c0,0.9,0,1.9
                0.4,2.8 H19c-0.1-0.3-0.2-0.7-0.2-1c-0.9,1-2.2,1.4-3.4,1.4c-2,0-3.6-1.1-3.6-3.3c0-3.6,3.7-3.3,6.1-3.8c0.6-0.1,0.9-0.3,
                0.9-1c0-0.8-0.9-1.1-1.6-1.1c-0.9,0-1.5,0.4-1.7,1.4H12.2z M16.6,13.3c1.6,0,2.2-1,2.1-3.2c-0.5,0.3-1.4,0.4-2.1,
                0.6c-0.8,0.2-1.4,0.5-1.4,1.4C15.2,12.9,15.8,13.3,16.6,13.3" fill="#ff9718"></path>
            <rect x="23.7" y="0.2" class="st0" width="3.4" height="15" fill="#ff9718"></rect>
            <path class="st0" d="M41.5,3.9c2.9,0,4.8,1.7,4.4,4.8c-0.4,3.9-3.1,6.7-6.8,6.7c-2.9,0-4.8-1.5-4.5-4.7C35,6.8,37.7,3.9,
                41.5,3.9M39.4,12.8c1.9,0,2.9-2.3,3-3.9c0.1-1.4-0.2-2.3-1.5-2.3c-1.9,0-2.8,2.5-3,4C37.9,11.8,38.2,12.8,39.4,12.8" fill="#ff9718"></path>
            <path class="st0" d="M35.2,4.2h-2.1V3.7c0-1,0.5-1.1,1.3-1.1c0.3,0,0.6,0,0.9,0.1V0.1C34.8,0,34.2,0,33.6,0c-2.9,0-4,
                1-4,4.2H28v2.4h1.6v8.6h3.4V6.5h1.2L35.2,4.2z" fill="#ff9718"></path>
            <path class="st0" d="M54.6,7.2C54.6,7.2,54.6,7.2,54.6,7.2l0-0.1L54.6,7.2z" fill="#ff9718"></path>
            <path class="st0" d="M47.1,12.9V4.2h3.3v1.8h0c0.5-1.3,1.7-2,3.1-2c0.2,0,0.5,0,0.7,0.1l-0.2,0.4l-0.9,2.5c-0.1,0-0.1,
                0-0.2,0c-1.7,0-2.6,1.2-2.6,2.5v5.8h-3.4V12.9z" fill="#ff9718"></path>
            <path class="st0" d="M64.8,15.2h-3.3v-1.2h0c-0.7,1-1.7,1.6-2.9,1.6c-3.3,0-4.7-3-4.7-6.1c0-2.9,1.4-5.6,4.4-5.6
                c1.3,0,2.3,0.5,3,1.5h0V0h3.4V15.2z M57.3,9.6c0,1.5,0.5,3.2,2.1,3.2c1.7,0,2-1.7,2-3.1c0-1.6-0.5-3.1-2-3.1
                C57.9,6.6,57.3,8.2,57.3,9.6" fill="#ff9718"></path>
            <path class="st0" d="M70.3,15.4c-1.8,0-3.1-0.5-4.4-1.3l1-2.8c1.1,0.8,2.4,1.4,3.4,1.4c0.9,0,1.2-0.3,1.2-0.7
                c0-1.4-5.1-0.5-5.1-4.2c0-2.2,1.9-3.7,4.5-3.7c1.3,0,2.9,0.5,4,1.1l-1,2.7c-1.1-0.6-2.2-1-3.1-1c-0.7,0-1.1,0.3-1.1,0.7
                c0,1.4,5.3,0.5,5.3,4.5C75,14,73,15.4,70.3,15.4" fill="#ff9718"></path>
        </g>
    </g>
</svg>